<svg width="64" height="64" viewBox="0 0 64 64" fill="none" xmlns="http://www.w3.org/2000/svg">
<circle cx="32" cy="32" r="30" fill="#C4C4C4" stroke="black" stroke-width="4"/>
<path d="M13.3335 32H26.6668M20.0002 38.6666V25.3333V38.6666Z" stroke="black" stroke-width="2"/>
<path d="M35.1191 39H33.3027V26.959L29.6602 28.2969V26.6562L34.8359 24.7129H35.1191V39ZM49.3281 32.9355C49.3281 35.0514 48.9668 36.6237 48.2441 37.6523C47.5215 38.681 46.3919 39.1953 44.8555 39.1953C43.3385 39.1953 42.2155 38.694 41.4863 37.6914C40.7572 36.6823 40.3796 35.1784 40.3535 33.1797V30.7676C40.3535 28.6777 40.7148 27.125 41.4375 26.1094C42.1602 25.0938 43.293 24.5859 44.8359 24.5859C46.3659 24.5859 47.4922 25.0775 48.2148 26.0605C48.9375 27.0371 49.3086 28.5475 49.3281 30.5918V32.9355ZM47.5215 30.4648C47.5215 28.9349 47.3066 27.8216 46.877 27.125C46.4473 26.4219 45.7669 26.0703 44.8359 26.0703C43.9115 26.0703 43.2376 26.4186 42.8145 27.1152C42.3913 27.8118 42.1732 28.8828 42.1602 30.3281V33.2188C42.1602 34.7552 42.3815 35.8913 42.8242 36.627C43.2734 37.3561 43.9505 37.7207 44.8555 37.7207C45.7474 37.7207 46.4082 37.3757 46.8379 36.6855C47.2741 35.9954 47.502 34.9082 47.5215 33.4238V30.4648Z" fill="black"/>
</svg>
